{"title":"Direct Ishq 2016 Movies DVDScr XviD AAC New Source +Sample ☻rDX☻","uid":13756038,"size":739811383,"categoryP":"video","categoryS":"movies","magnet":"?xt=urn:btih:5540658a6f5f3805a347015064df9e88f68e08ed&amp;dn=Direct+Ishq+2016+Movies+DVDScr+XviD+AAC+New+Source+%2BSample+%E2%98%BBrDX%E2%98%BB&amp;tr=udp%3A%2F%2Ftracker.leechers-paradise.org%3A6969&amp;tr=udp%3A%2F%2Fzer0day.ch%3A1337&amp;tr=udp%3A%2F%2Fopen.demonii.com%3A1337&amp;tr=udp%3A%2F%2Ftracker.coppersurfer.tk%3A6969&amp;tr=udp%3A%2F%2Fexodus.desync.com%3A6969","seeders":4,"leechers":3,"uploader":"basicssom","files":2,"time":1457195536,"description":"----------------------------------------------------------------\r\nDirect Ishq 2016 Hindi Movies DVDScr XviD AAC New Source with Sample ~ ☻rDX☻\r\n\r\nSCREEN SHOTS &amp; POSTER:\r\n  \nhttp://mobileshosting.com/2016/3/DirectIshq/index.htm  \nhttp://mobileshosting.com/2016/3/DirectIshq/1.html  \nhttp://mobileshosting.com/2016/3/DirectIshq/2.html  \nhttp://mobileshosting.com/2016/3/DirectIshq/3.html  \nhttp://mobileshosting.com/2016/3/DirectIshq/4.html  \nhttp://mobileshosting.com/2016/3/DirectIshq/5.html  \nhttp://mobileshosting.com/2016/3/DirectIshq/6.html  \nhttp://mobileshosting.com/2016/3/DirectIshq/7.html  \nhttp://mobileshosting.com/2016/3/DirectIshq/8.html  \nhttp://mobileshosting.com/2016/3/DirectIshq/9.html  \nhttp://mobileshosting.com/2016/3/DirectIshq/10.html\r\n\r\nFormat                                   : Matroska\r\nFormat version                           : Version 4 / Version 2\r\nFile size                                : 690 MiB\r\nDuration                                 : 1h 56mn\r\nOverall bit rate                         : 830 Kbps\r\nMovie name                               : Direct Ishq 2016 Hindi Movies DVDScr XviD AAC New Source ☻rDX☻\r\n\r\nVideo\r\nID                                       : 1\r\nFormat                                   : MPEG-4 Visual\r\nFormat profile                           : Advanced   \r\nFormat settings, BVOP                    : Yes\r\nFormat settings, QPel                    : No\r\nFormat settings, GMC                     : No warppoints\r\nFormat settings, Matrix                  : Default (H.263)\r\nCodec ID                                 : V_MS/VFW/FOURCC / XVID\r\nCodec ID/Hint                            : XviD\r\nDuration                                 : 1h 56mn\r\nBit rate                                 : 749 Kbps\r\nWidth                                    : 640 pixels\r\nHeight                                   : 272 pixels\r\nDisplay aspect ratio                     : 2.35:1\r\nFrame rate mode                          : Constant\r\nFrame rate                               : 25.000 fps\r\nColor space                              : YUV\r\nChroma subsampling                       : 4:2:0\r\nBit depth                                : 8 bits\r\nScan type                                : Progressive\r\nCompression mode                         : Lossy\r\nBits/(Pixel*Frame)                       : 0.172\r\nStream size                              : 623 MiB (90%)\r\nTitle                                    : ☻rDX☻\r\nWriting library                          : XviD 67\r\nDefault                                  : Yes\r\nForced                                   : No\r\n\r\nAudio\r\nID                                       : 2\r\nFormat                                   : MPEG Audio\r\nFormat version                           : Version 2\r\nFormat profile                           : Layer 3\r\nMode                                     : Joint stereo\r\nMode extension                           : MS Stereo\r\nCodec ID                                 : A_MPEG/L3\r\nCodec ID/Hint                            : MP3\r\nDuration                                 : 1h 58mn\r\nBit rate mode                            : Constant\r\nBit rate                                 : 64.0 Kbps\r\nChannel(s)                               : 2 channels\r\nSampling rate                            : 24.0 KHz\r\nCompression mode                         : Lossy\r\nStream size                              : 54.2 MiB (8%)\r\nTitle                                    : ☻rDX☻\r\nWriting library                          : LAME3.99r\r\nEncoding settings                        : -m j -V 4 -q 2 -lowpass 11 -b 64\r\nDefault                                  : Yes\r\nForced                                   : No\r\n\r\nIMDB                                      \nhttp://www.imdb.com/title/tt4340180/","torrent":{"xt":"urn:btih:5540658a6f5f3805a347015064df9e88f68e08ed","amp;dn":"Direct+Ishq+2016+Movies+DVDScr+XviD+AAC+New+Source+%2BSample+%E2%98%BBrDX%E2%98%BB","amp;tr":["udp%3A%2F%2Ftracker.leechers-paradise.org%3A6969","udp%3A%2F%2Fzer0day.ch%3A1337","udp%3A%2F%2Fopen.demonii.com%3A1337","udp%3A%2F%2Ftracker.coppersurfer.tk%3A6969","udp%3A%2F%2Fexodus.desync.com%3A6969"],"infoHash":"5540658a6f5f3805a347015064df9e88f68e08ed","infoHashBuffer":{"type":"Buffer","data":[85,64,101,138,111,95,56,5,163,71,1,80,100,223,158,136,246,142,8,237]},"announce":[],"urlList":[]}}